Coordinates
version=1
nRows=17
nColumns=38
inDegrees=yes

Units are S.I. units (second, meters, Newtons, ...)
If the header above contains a line with 'inDegrees', this indicates whether rotational values are in degrees (yes) or radians (no).

endheader
time	pelvis_tilt	pelvis_list	pelvis_rotation	pelvis_tx	pelvis_ty	pelvis_tz	hip_flexion_r	hip_adduction_r	hip_rotation_r	knee_angle_r	ankle_angle_r	subtalar_angle_r	mtp_angle_r	hip_flexion_l	hip_adduction_l	hip_rotation_l	knee_angle_l	ankle_angle_l	subtalar_angle_l	mtp_angle_l	lumbar_extension	lumbar_bending	lumbar_rotation	arm_flex_r	arm_add_r	arm_rot_r	elbow_flex_r	pro_sup_r	wrist_flex_r	wrist_dev_r	arm_flex_l	arm_add_l	arm_rot_l	elbow_flex_l	pro_sup_l	wrist_flex_l	wrist_dev_l
      1.47200000	      2.19281227	     -2.31721953	      6.60441830	     -0.16041972	      1.03289086	      0.23082173	     36.74347151	     -2.34312187	    -11.22784626	    -81.83411950	     -0.71870910	     -4.12164572	      0.00000000	    -17.74615329	     -2.82754455	      2.45134627	    -20.12869007	      1.73731265	     14.75017983	      0.00000000	    -11.46216398	      1.77491681	    -11.31432642	    -53.86165513	    -21.28793460	     -6.48462637	     93.84266391	     60.00586988	      0.00000000	      0.00000000	    -13.04514343	    -28.97082886	     -0.05327084	    126.45007076	     60.00014031	      0.00000000	      0.00000000
      1.47600000	      1.75648860	     -3.03445417	      6.41536608	     -0.14468878	      1.03554965	      0.23138950	     37.15944695	     -1.61082498	    -11.67228301	    -79.63301398	     -1.02395692	     -4.24889374	      0.00000000	    -18.19351574	     -3.65122572	      1.59260007	    -19.33294255	     -0.90598713	     14.42215692	      0.00000000	    -10.63741795	      2.47623417	    -11.30517794	    -54.93068047	    -21.14943689	     -7.01619790	     94.00137190	     60.00586988	      0.00000000	      0.00000000	    -13.35756218	    -28.57097171	     -0.39261043	    127.95387824	     60.00014031	      0.00000000	      0.00000000
      1.48000000	      1.44179411	     -3.54641295	      6.26997977	     -0.12930401	      1.03820446	      0.23182289	     37.41682536	     -1.12868339	    -12.06306785	    -77.43401018	     -1.32056969	     -4.12802440	      0.00000000	    -18.67615147	     -4.28629038	      0.83792743	    -18.68084367	     -3.39984609	     14.46845668	      0.00000000	    -10.03529168	      2.97715072	    -11.29967187	    -55.96519617	    -20.99356142	     -7.51375462	     94.23905740	     60.00586988	      0.00000000	      0.00000000	    -13.51590132	    -28.39894326	     -0.37865825	    129.62131495	     60.00014031	      0.00000000	      0.00000000
      1.48400000	      1.07049799	     -3.78913613	      6.31328079	     -0.11399366	      1.04066686	      0.23217528	     37.67765677	     -1.00856893	    -12.46288180	    -75.26338552	     -1.48030530	     -3.90821032	      0.00000000	    -19.01702945	     -4.69879780	      0.37283272	    -18.12622900	     -5.85842682	     14.39922634	      0.00000000	     -9.39721050	      3.18580644	    -11.50151260	    -56.98563863	    -20.75838412	     -7.94536369	     94.47579277	     60.00586988	      0.00000000	      0.00000000	    -13.68694476	    -28.39975111	     -0.25289040	    131.24776314	     60.00014031	      0.00000000	      0.00000000
      1.48800000	      0.89226526	     -4.46427854	      6.05180177	     -0.09838692	      1.04332696	      0.23284390	     37.66163873	     -0.21756029	    -12.81849980	    -72.84104054	     -1.83362002	     -3.80608166	      0.00000000	    -19.62165307	     -5.44994008	     -0.62737935	    -17.53289357	     -8.18066449	     14.25863849	      0.00000000	     -8.92160161	      3.86047996	    -11.35293295	    -57.99520498	    -20.61776994	     -8.44747728	     94.71482484	     60.00586988	      0.00000000	      0.00000000	    -13.88000123	    -28.13438679	     -0.27670586	    132.77696658	     60.00014031	      0.00000000	      0.00000000
      1.49200000	      0.51138277	     -4.68425863	      6.05707874	     -0.08311165	      1.04562995	      0.23317637	     37.83902943	     -0.09208681	    -13.16650275	    -70.54519471	     -2.12945684	     -3.39382267	      0.00000000	    -19.85864019	     -5.79168260	     -1.09877371	    -17.13971903	    -10.52065052	     13.98584742	      0.00000000	     -8.30073621	      4.04019911	    -11.53045474	    -58.91760403	    -20.35364731	     -8.93281700	     94.87758360	     60.00586988	      0.00000000	      0.00000000	    -14.09622003	    -28.01005773	     -0.26286846	    134.27029055	     60.00014031	      0.00000000	      0.00000000
      1.49600000	      0.20003893	     -4.80355521	      6.09146614	     -0.06813119	      1.04777378	      0.23351611	     37.93547234	     -0.02847181	    -13.42674564	    -68.25774513	     -2.29459927	     -2.99982681	      0.00000000	    -20.04084593	     -6.04804263	     -1.51335630	    -16.98640389	    -12.47693677	     13.81539065	      0.00000000	     -7.81229916	      4.10855055	    -11.65547909	    -59.81661946	    -20.13668309	     -9.23594964	     95.08443141	     60.00586988	      0.00000000	      0.00000000	    -14.13050903	    -27.99964627	     -0.13871257	    135.82171636	     60.00014031	      0.00000000	      0.00000000
      1.50000000	     -0.06977522	     -5.32926363	      5.87616816	     -0.05221385	      1.05006876	      0.23383880	     37.79755186	      0.55387702	    -13.76055838	    -65.62891829	     -2.24029178	     -2.60112448	      0.00000000	    -20.46987195	     -6.58446936	     -2.36154994	    -16.54445990	    -14.67072290	     13.23577823	      0.00000000	     -7.19861990	      4.67425863	    -11.58757680	    -60.76460828	    -19.95673842	     -9.87944057	     95.21763785	     60.00586988	      0.00000000	      0.00000000	    -14.46420955	    -27.63989856	     -0.13317564	    136.99164825	     60.00014031	      0.00000000	      0.00000000
      1.50400000	     -0.04956042	     -5.88796637	      5.67802356	     -0.03664643	      1.05247085	      0.23467344	     37.35617058	      1.29961387	    -14.04077444	    -62.93112819	     -2.54618746	     -2.23858261	      0.00000000	    -21.06390005	     -7.26376209	     -3.44456065	    -16.37340102	    -16.41946821	     13.17935789	      0.00000000	     -6.99277855	      5.24329776	    -11.41433710	    -61.64965388	    -19.75368041	    -10.36297851	     95.46003133	     60.00586988	      0.00000000	      0.00000000	    -14.61661743	    -27.48212590	     -0.02478537	    138.27167720	     60.00014031	      0.00000000	      0.00000000
      1.50800000	     -0.31214424	     -5.84419797	      5.70601812	     -0.02167407	      1.05435262	      0.23523887	     37.24144829	      1.30516029	    -14.15391587	    -60.42171661	     -2.76875227	     -1.76060368	      0.00000000	    -21.14168548	     -7.36739226	     -3.78855243	    -16.52156918	    -17.96993501	     13.09858782	      0.00000000	     -6.59248691	      5.11340575	    -11.53136406	    -62.36291328	    -19.44121341	    -10.68092331	     95.57063795	     60.00586988	      0.00000000	      0.00000000	    -14.71534579	    -27.49682288	      0.10567177	    139.59862814	     60.00014031	      0.00000000	      0.00000000
      1.51200000	     -0.53229479	     -6.17042530	      5.61689883	     -0.00589268	      1.05633107	      0.23567399	     36.90573280	      1.73645824	    -14.35609333	    -57.64103109	     -2.84641733	     -1.00799750	      0.00000000	    -21.40108616	     -7.76823659	     -4.45121260	    -16.47496506	    -19.63607044	     12.40135709	      0.00000000	     -6.08966699	      5.43754737	    -11.55136044	    -63.11307010	    -19.21849821	    -11.11476810	     95.56753453	     60.00586988	      0.00000000	      0.00000000	    -15.10161835	    -27.24887849	      0.17537918	    140.51403269	     60.00014031	      0.00000000	      0.00000000
      1.51600000	     -0.34931195	     -6.71286224	      5.43823343	      0.00963342	      1.05852412	      0.23648004	     36.11164204	      2.56172181	    -14.49208372	    -54.67038454	     -3.04114047	     -0.43046176	      0.00000000	    -22.01592595	     -8.41753845	     -5.40772990	    -16.63938259	    -20.91690876	     12.04164112	      0.00000000	     -6.09108241	      6.02196017	    -11.34283239	    -63.83171927	    -19.04423114	    -11.53775284	     95.77265367	     60.00586988	      0.00000000	      0.00000000	    -15.21860810	    -27.12188275	      0.29805579	    141.51157933	     60.00014031	      0.00000000	      0.00000000
      1.52000000	     -0.56780671	     -6.58100727	      5.44221662	      0.02447464	      1.06002623	      0.23718990	     35.80352313	      2.62776335	    -14.34370799	    -51.94111172	     -3.24803047	      0.17595458	      0.00000000	    -21.98742963	     -8.41744115	     -5.58187028	    -17.13194801	    -21.88319331	     11.59786744	      0.00000000	     -5.78221572	      5.78703432	    -11.40695900	    -64.37275774	    -18.71893773	    -11.72380051	     95.85019485	     60.00586988	      0.00000000	      0.00000000	    -15.36309503	    -27.13540145	      0.38389938	    142.46932142	     60.00014031	      0.00000000	      0.00000000
      1.52400000	     -0.76787629	     -6.65245062	      5.42354844	      0.03967865	      1.06148486	      0.23782935	     35.35567387	      2.90234489	    -14.25360843	    -49.01516569	     -3.31402865	      0.96274639	      0.00000000	    -22.00759074	     -8.58240350	     -5.79666779	    -17.59529445	    -23.05080334	     10.73654816	      0.00000000	     -5.40215378	      5.83858033	    -11.44274016	    -64.89873734	    -18.44918549	    -12.04070328	     95.88625303	     60.00586988	      0.00000000	      0.00000000	    -15.63396519	    -27.04686234	      0.49574902	    143.19765418	     60.00014031	      0.00000000	      0.00000000
      1.52800000	     -0.85419590	     -6.91184617	      5.34236920	      0.05546893	      1.06294560	      0.23795542	     34.67629514	      3.31657044	    -14.31096828	    -45.98499580	     -3.33731551	      2.00228520	      0.00000000	    -22.26152844	     -8.83713848	     -6.08922091	    -17.92376282	    -24.14652488	      9.43490898	      0.00000000	     -5.09131199	      6.11915423	    -11.42137922	    -65.44724308	    -18.37643860	    -12.41535250	     95.75651851	     60.00586988	      0.00000000	      0.00000000	    -16.01947149	    -26.83966269	      0.71014270	    143.80822908	     60.00014031	      0.00000000	      0.00000000
      1.53200000	     -0.31212219	     -7.26134232	      5.32849206	      0.07107926	      1.06504380	      0.23834221	     33.24465276	      3.97926208	    -14.27476285	    -42.71815324	     -3.47234639	      2.83809935	      0.00000000	    -23.06549480	     -9.31345307	     -6.63452508	    -18.49795283	    -24.73350052	      8.84791532	      0.00000000	     -5.52394037	      6.56323703	    -11.28609161	    -65.90759510	    -18.19705182	    -12.78590986	     95.84937565	     60.00586988	      0.00000000	      0.00000000	    -16.16383677	    -26.63622874	      0.89012614	    144.27684845	     60.00014031	      0.00000000	      0.00000000
      1.53600000	     -0.39980035	     -7.12916303	      5.27643575	      0.08623261	      1.06613585	      0.23877709	     32.53974877	      4.13427270	    -13.87836076	    -39.67730492	     -3.53220017	      3.63820524	      0.00000000	    -23.06534926	     -9.22005926	     -6.52951520	    -19.33203897	    -24.86688921	      8.02350077	      0.00000000	     -5.34362212	      6.38520014	    -11.28634179	    -66.24442906	    -18.09374727	    -12.88936398	     95.77065417	     60.00586988	      0.00000000	      0.00000000	    -16.46720408	    -26.62797903	      1.06757525	    144.72526559	     60.00014031	      0.00000000	      0.00000000
